   <svg xmlns="http://www.w3.org/2000/svg" width="20" height="20" viewBox="0 0 20 20" fill="none">
     <path opacity="0.2" d="M20 10C20 15.5228 15.5228 20 10 20C4.47715 20 0 15.5228 0 10C0 4.47715 4.47715 0 10 0C15.5228 0 20 4.47715 20 10ZM5 10C5 12.7614 7.23858 15 10 15C12.7614 15 15 12.7614 15 10C15 7.23858 12.7614 5 10 5C7.23858 5 5 7.23858 5 10Z" fill="#606060" />
     <path d="M10 20C7.78072 20 5.6245 19.2618 3.87093 17.9016C2.11736 16.5413 0.86608 14.6365 0.314168 12.4869C-0.237743 10.3373 -0.0589267 8.06527 0.822454 6.02852C1.70383 3.99177 3.2377 2.30608 5.18246 1.23693C7.12723 0.167789 9.37239 -0.224055 11.5643 0.123117C13.7563 0.470288 15.7705 1.53675 17.2897 3.15453C18.8089 4.77231 19.7468 6.84949 19.9556 9.05892C20.1645 11.2683 19.6324 13.4845 18.4433 15.3583L14.2216 12.6791C14.8162 11.7422 15.0822 10.6342 14.9778 9.52946C14.8734 8.42475 14.4044 7.38616 13.6448 6.57726C12.8852 5.76837 11.8781 5.23514 10.7822 5.06156C9.6862 4.88797 8.56361 5.08389 7.59123 5.61847C6.61885 6.15304 5.85192 6.99589 5.41123 8.01426C4.97054 9.03264 4.88113 10.1687 5.15708 11.2434C5.43304 12.3182 6.05868 13.2707 6.93546 13.9508C7.81225 14.6309 8.89036 15 10 15V20Z" fill="#00920F" />
   </svg>