<svg width="21" height="21" viewBox="0 0 21 21" fill="none" xmlns="http://www.w3.org/2000/svg">
<g id="logout-icon">
<g id="Group">
<path id="Vector" d="M10.5 0C10.7387 0 10.9676 0.094821 11.1364 0.263604C11.3052 0.432387 11.4 0.661305 11.4 0.9C11.4 1.13869 11.3052 1.36761 11.1364 1.5364C10.9676 1.70518 10.7387 1.8 10.5 1.8C8.19262 1.8 5.97974 2.7166 4.34817 4.34817C2.7166 5.97974 1.8 8.19262 1.8 10.5C1.8 12.8074 2.7166 15.0203 4.34817 16.6518C5.97974 18.2834 8.19262 19.2 10.5 19.2C10.7387 19.2 10.9676 19.2948 11.1364 19.4636C11.3052 19.6324 11.4 19.8613 11.4 20.1C11.4 20.3387 11.3052 20.5676 11.1364 20.7364C10.9676 20.9052 10.7387 21 10.5 21C7.71523 21 5.04451 19.8938 3.07538 17.9246C1.10625 15.9555 0 13.2848 0 10.5C0 7.71523 1.10625 5.04451 3.07538 3.07538C5.04451 1.10625 7.71523 0 10.5 0Z" fill="#0D151A"/>
<path id="Vector_2" d="M15.8642 7.53601C15.7052 7.3654 15.6187 7.13975 15.6228 6.90659C15.6269 6.67342 15.7214 6.45096 15.8862 6.28607C16.0511 6.12117 16.2736 6.02672 16.5068 6.0226C16.7399 6.01849 16.9656 6.10504 17.1362 6.26401L20.7362 9.86401C20.9047 10.0328 20.9994 10.2615 20.9994 10.5C20.9994 10.7385 20.9047 10.9673 20.7362 11.136L17.1362 14.736C17.0538 14.8244 16.9544 14.8954 16.844 14.9445C16.7336 14.9937 16.6145 15.0202 16.4936 15.0223C16.3728 15.0245 16.2527 15.0022 16.1407 14.957C16.0286 14.9117 15.9268 14.8443 15.8413 14.7589C15.7559 14.6734 15.6885 14.5716 15.6432 14.4595C15.598 14.3475 15.5758 14.2274 15.5779 14.1066C15.58 13.9857 15.6065 13.8666 15.6557 13.7562C15.7048 13.6458 15.7758 13.5464 15.8642 13.464L17.9282 11.4H8.1002C7.8615 11.4 7.63258 11.3052 7.4638 11.1364C7.29502 10.9676 7.2002 10.7387 7.2002 10.5C7.2002 10.2613 7.29502 10.0324 7.4638 9.86362C7.63258 9.69483 7.8615 9.60001 8.1002 9.60001H17.9282L15.8642 7.53601Z" fill="#0D151A"/>
</g>
</g>
</svg>
