<svg width="57" height="66" viewBox="0 0 57 66" fill="none" xmlns="http://www.w3.org/2000/svg">
<path d="M6 57V27H42V36.27C42.99 36.12 43.98 36 45 36C46.02 36 47.01 36.12 48 36.27V27C48 25.4087 47.3679 23.8826 46.2426 22.7574C45.1174 21.6321 43.5913 21 42 21H39V15C39 6.72 32.28 0 24 0C15.72 0 9 6.72 9 15V21H6C2.67 21 0 23.67 0 27V57C0 58.5913 0.632141 60.1174 1.75736 61.2426C2.88258 62.3679 4.4087 63 6 63H29.43C28.38 61.17 27.66 59.16 27.27 57H6ZM15 15C15 10.02 19.02 6 24 6C28.98 6 33 10.02 33 15V21H15V15ZM30 42C30 45.33 27.33 48 24 48C22.4087 48 20.8826 47.3679 19.7574 46.2426C18.6321 45.1174 18 43.5913 18 42C18 38.67 20.67 36 24 36C25.5913 36 27.1174 36.6321 28.2426 37.7574C29.3679 38.8826 30 40.4087 30 42ZM57 51V57H48V66H42V57H33V51H42V42H48V51H57Z" fill="#B79449"/>
</svg>
