<svg width="55" height="63" viewBox="0 0 55 63" fill="none" xmlns="http://www.w3.org/2000/svg">
<path d="M29.7297 42C29.7297 45.33 27.0838 48 23.7838 48C22.2068 48 20.6944 47.3679 19.5794 46.2426C18.4643 45.1174 17.8378 43.5913 17.8378 42C17.8378 38.67 20.4838 36 23.7838 36C25.3607 36 26.8731 36.6321 27.9882 37.7574C29.1033 38.8826 29.7297 40.4087 29.7297 42ZM27.0243 57C27.3811 59.16 28.1243 61.17 29.1649 63H5.94595C4.36898 63 2.85661 62.3679 1.74153 61.2426C0.626446 60.1174 0 58.5913 0 57V27C0 23.67 2.64595 21 5.94595 21H8.91892V15C8.91892 6.72 15.5784 0 23.7838 0C31.9892 0 38.6486 6.72 38.6486 15V21H41.6216C43.1986 21 44.711 21.6321 45.826 22.7574C46.9411 23.8826 47.5676 25.4087 47.5676 27V36.27C46.5865 36.12 45.6054 36 44.5946 36C43.5838 36 42.6027 36.12 41.6216 36.27V27H5.94595V57H27.0243ZM14.8649 21H32.7027V15C32.7027 10.02 28.7189 6 23.7838 6C18.8486 6 14.8649 10.02 14.8649 15V21ZM51.5513 44.52L40.8784 55.29L36.1513 50.52L32.7027 54L40.8784 63L55 48.75L51.5513 44.52Z" fill="#B79449"/>
</svg>
