<svg xmlns="http://www.w3.org/2000/svg" width="20" height="20" viewBox="0 0 20 20" fill="none">
  <path d="M10 20C8.04893 20 6.14049 19.4293 4.50977 18.3581C2.87906 17.2869 1.59731 15.7621 0.822453 13.9715C0.0475922 12.1809 -0.186538 10.2027 0.148907 8.28071C0.484352 6.3587 1.37472 4.57679 2.71031 3.15453L6.35516 6.57726C5.68736 7.2884 5.24218 8.17935 5.07445 9.14035C4.90673 10.1014 5.0238 11.0904 5.41123 11.9857C5.79866 12.881 6.43953 13.6434 7.25489 14.179C8.07024 14.7146 9.02447 15 10 15V20Z" fill="#FF0000" />
  <path opacity="0.2" d="M20 10C20 15.5228 15.5228 20 10 20C4.47715 20 0 15.5228 0 10C0 4.47715 4.47715 0 10 0C15.5228 0 20 4.47715 20 10ZM5 10C5 12.7614 7.23858 15 10 15C12.7614 15 15 12.7614 15 10C15 7.23858 12.7614 5 10 5C7.23858 5 5 7.23858 5 10Z" fill="#606060" />
</svg>