<svg width="63" height="63" viewBox="0 0 63 63" fill="none" xmlns="http://www.w3.org/2000/svg">
<path d="M31.5 0C14.1031 0 0 14.1031 0 31.5C0 48.8969 14.1031 63 31.5 63C48.8969 63 63 48.8969 63 31.5C63 14.1031 48.8969 0 31.5 0ZM31.5 6.84448C45.1169 6.84448 56.1517 17.8865 56.1517 31.5C56.1517 45.1135 45.1169 56.1517 31.5 56.1517C17.8831 56.1517 6.84831 45.1135 6.84831 31.5C6.84836 17.8865 17.8831 6.84448 31.5 6.84448ZM43.5701 16.5421L25.313 34.803L19.3914 28.8814L13.5813 34.6877L19.5029 40.6093L25.3515 46.4579L31.1578 40.6478L49.4187 22.3907L43.5701 16.5421Z" fill="#B79449"/>
</svg>
