<svg xmlns="http://www.w3.org/2000/svg" width="65" height="63" viewBox="0 0 65 63" fill="none">
  <path d="M16.3642 54.0012L7.9918 52.1518C7.23068 51.9977 6.62178 51.599 6.16511 50.9559C5.70843 50.3147 5.53084 49.6089 5.63232 48.8383L6.46956 40.1306L0.761124 33.5035C0.253708 32.9384 0 32.2706 0 31.5C0 30.7294 0.253708 30.0616 0.761124 29.4965L6.46956 22.8694L5.63232 14.1617C5.53084 13.3911 5.70843 12.6853 6.16511 12.0441C6.62178 11.401 7.23068 11.0023 7.9918 10.8482L16.3642 8.99878L20.7787 1.447C21.1846 0.779152 21.7428 0.342484 22.4532 0.136994C23.1635 -0.0684968 23.8739 -0.0428106 24.5843 0.214053L32.5 3.60465L40.4157 0.214053C41.1261 -0.0428106 41.8365 -0.0684968 42.5468 0.136994C43.2572 0.342484 43.8154 0.779152 44.2213 1.447L48.6358 8.99878L57.0082 10.8482C57.7693 11.0023 58.3782 11.401 58.8349 12.0441C59.2916 12.6853 59.4692 13.3911 59.3677 14.1617L58.5304 22.8694L64.2389 29.4965C64.7463 30.0616 65 30.7294 65 31.5C65 32.2706 64.7463 32.9384 64.2389 33.5035L58.5304 40.1306L59.3677 48.8383C59.4692 49.6089 59.2916 50.3147 58.8349 50.9559C58.3782 51.599 57.7693 51.9977 57.0082 52.1518L48.6358 54.0012L44.2213 61.553C43.8154 62.2208 43.2572 62.6575 42.5468 62.863C41.8365 63.0685 41.1261 63.0428 40.4157 62.7859L32.5 59.3953L24.5843 62.7859C23.8739 63.0428 23.1635 63.0685 22.4532 62.863C21.7428 62.6575 21.1846 62.2208 20.7787 61.553L16.3642 54.0012ZM27.1721 40.2847C27.7303 40.8498 28.4407 41.1324 29.3033 41.1324C30.1659 41.1324 30.8763 40.8498 31.4344 40.2847L44.3735 27.1847C44.9824 26.5682 45.2869 25.8357 45.2869 24.987C45.2869 24.1404 44.9824 23.4088 44.3735 22.7923C43.7646 22.1759 43.0421 21.8676 42.2059 21.8676C41.3676 21.8676 40.644 22.1759 40.0351 22.7923L29.3033 33.6576L24.8888 29.2653C24.2799 28.7002 23.5573 28.43 22.7211 28.4546C21.8828 28.4813 21.1846 28.7772 20.6265 29.3423C20.0683 29.9074 19.7892 30.6267 19.7892 31.5C19.7892 32.3733 20.0683 33.0926 20.6265 33.6576L27.1721 40.2847ZM24.7365 56.0048L32.5 52.6142L40.4157 56.0048L44.678 48.6071L53.0504 46.6036L52.2892 37.973L57.9216 31.5L52.2892 24.8729L53.0504 16.2423L44.678 14.3929L40.2635 6.99524L32.5 10.3858L24.5843 6.99524L20.322 14.3929L11.9496 16.2423L12.7108 24.8729L7.07845 31.5L12.7108 37.973L11.9496 46.7577L20.322 48.6071L24.7365 56.0048Z" fill="#B79449" />
</svg>